<svg width="1022" height="289" viewBox="0 0 1022 289" fill="none" xmlns="http://www.w3.org/2000/svg">
<path d="M17.72 217.46C27.1309 217.46 34.76 209.831 34.76 200.42C34.76 191.009 27.1309 183.38 17.72 183.38C8.30906 183.38 0.679993 191.009 0.679993 200.42C0.679993 209.831 8.30906 217.46 17.72 217.46Z" fill="#D2AC47"/>
<path d="M66.22 118.66C54.79 111.66 46.05 106.68 39.85 101.74C4.94 73.95 18.54 39.76 18.54 39.76C0.689999 53.14 -4.36 79.7 4.15 99.47C12.79 119.53 34.94 131.7 52.42 143.02C62.35 149.45 75.76 155.9 83.93 164.76C95.77 177.6 98.96 195.76 90.07 210.5C79.53 227.95 58.86 232.45 39.89 224.28C39.89 224.28 70.45 239.72 97.64 223.1C97.64 223.1 116.39 211.61 117.55 184.33C118.7 157.04 100.21 139.47 66.22 118.66Z" fill="#D2AC47"/>
<path d="M89.13 88.01C76.38 80.2 61.99 73.01 52.12 61.29C41.93 49.17 39.71 31.11 49.9 18.16C56.5 9.78001 67.03 5.58 77.57 5.93C98.61 6.62 122.19 21.19 123.35 59.34H129.84V2.69001C129.84 2.69001 124.85 2.69001 124.81 2.69001C124.81 2.69001 123.92 6.55 123.84 6.87C123.38 8.86 122.86 11.35 121.34 12.82C119.62 14.48 117 14.59 114.8 14.02C106.01 11.71 95.84 -5.85999 58.62 2.69001C29.06 9.48001 18.39 42.95 28.05 69.35C39.57 100.82 76 108.4 99.08 128.7C135.38 158.96 124.33 191.25 124.33 191.26C127.94 188.28 130.86 184.44 133.44 180.56C136.95 175.27 140.08 169.33 141.21 163.05C147.66 127.22 115.73 104.29 89.13 88.01Z" fill="#D2AC47"/>
<path d="M341.861 116.909C338.035 108.109 332.168 101.221 324.26 96.2468C316.48 91.1449 307.296 88.594 296.71 88.594C286.762 88.594 277.833 90.8898 269.925 95.4815C262.018 100.073 255.768 106.642 251.176 115.187C246.584 123.605 244.289 133.426 244.289 144.651C244.289 155.875 246.584 165.759 251.176 174.305C255.768 182.851 262.018 189.419 269.925 194.011C277.833 198.603 286.762 200.898 296.71 200.898C306.021 200.898 314.375 198.921 321.773 194.968C329.298 190.886 335.293 185.146 339.757 177.749C344.349 170.224 346.963 161.487 347.601 151.538H291.353V140.633H361.759V150.39C361.121 162.124 357.932 172.774 352.193 182.34C346.453 191.779 338.737 199.24 329.043 204.725C319.477 210.209 308.699 212.952 296.71 212.952C284.338 212.952 273.114 210.082 263.038 204.342C252.962 198.475 244.99 190.376 239.123 180.045C233.383 169.586 230.514 157.788 230.514 144.651C230.514 131.513 233.383 119.779 239.123 109.448C244.99 98.989 252.962 90.8898 263.038 85.1502C273.114 79.2831 284.338 76.3496 296.71 76.3496C310.995 76.3496 323.495 79.9208 334.209 87.0634C344.923 94.206 352.703 104.155 357.55 116.909H341.861ZM457.462 211.612L424.363 155.747H399.683V211.612H386.291V77.8801H426.468C441.391 77.8801 452.679 81.4514 460.331 88.594C468.112 95.7366 472.002 105.111 472.002 116.718C472.002 126.411 469.196 134.702 463.584 141.589C458.099 148.349 449.936 152.75 439.095 154.79L473.533 211.612H457.462ZM399.683 144.842H426.659C437.118 144.842 444.962 142.291 450.192 137.189C455.549 132.087 458.227 125.264 458.227 116.718C458.227 107.917 455.676 101.157 450.574 96.4381C445.472 91.5913 437.437 89.1679 426.468 89.1679H399.683V144.842ZM558.653 212.952C546.281 212.952 535.057 210.082 524.981 204.342C514.905 198.475 506.933 190.376 501.066 180.045C495.326 169.586 492.457 157.788 492.457 144.651C492.457 131.513 495.326 119.779 501.066 109.448C506.933 98.989 514.905 90.8898 524.981 85.1502C535.057 79.2831 546.281 76.3496 558.653 76.3496C571.153 76.3496 582.441 79.2831 592.517 85.1502C602.593 90.8898 610.501 98.989 616.24 109.448C621.98 119.779 624.85 131.513 624.85 144.651C624.85 157.788 621.98 169.586 616.24 180.045C610.501 190.376 602.593 198.475 592.517 204.342C582.441 210.082 571.153 212.952 558.653 212.952ZM558.653 201.281C568.602 201.281 577.53 198.985 585.438 194.394C593.346 189.802 599.596 183.233 604.187 174.688C608.779 166.015 611.075 156.002 611.075 144.651C611.075 133.299 608.779 123.35 604.187 114.805C599.596 106.259 593.346 99.6905 585.438 95.0988C577.53 90.5072 568.602 88.2113 558.653 88.2113C548.705 88.2113 539.776 90.5072 531.868 95.0988C523.961 99.6905 517.711 106.259 513.119 114.805C508.528 123.35 506.232 133.299 506.232 144.651C506.232 156.002 508.528 166.015 513.119 174.688C517.711 183.233 523.961 189.802 531.868 194.394C539.776 198.985 548.705 201.281 558.653 201.281ZM662.173 77.8801V162.061C662.173 175.325 665.298 185.146 671.548 191.524C677.925 197.901 686.598 201.09 697.567 201.09C708.536 201.09 717.082 197.965 723.204 191.715C729.454 185.338 732.579 175.453 732.579 162.061V77.8801H745.971V161.869C745.971 178.833 741.443 191.588 732.388 200.133C723.459 208.679 711.789 212.952 697.376 212.952C682.963 212.952 671.229 208.679 662.173 200.133C653.245 191.588 648.781 178.833 648.781 161.869V77.8801H662.173ZM861.362 116.335C861.362 127.814 857.6 137.062 850.074 144.077C842.549 151.092 831.261 154.599 816.211 154.599H789.235V211.612H775.842V77.8801H816.211C831.134 77.8801 842.358 81.3876 849.883 88.4027C857.536 95.4177 861.362 104.729 861.362 116.335ZM816.211 143.12C837.128 143.12 847.587 134.192 847.587 116.335C847.587 107.407 845.1 100.647 840.126 96.0554C835.151 91.4638 827.18 89.1679 816.211 89.1679H789.235V143.12H816.211Z" fill="black"/>
<path d="M1001.96 198.96C1012.96 198.96 1021.88 190.041 1021.88 179.04C1021.88 168.038 1012.96 159.12 1001.96 159.12C990.959 159.12 982.04 168.038 982.04 179.04C982.04 190.041 990.959 198.96 1001.96 198.96Z" fill="#D2AC47"/>
</svg>
